 <!DOCTYPE svg PUBLIC "-//W3C//DTD SVG 1.1//EN" "http://www.w3.org/Graphics/SVG/1.1/DTD/svg11.dtd">

<svg id="b818b5b0-6016-4204-ad24-a50ece3d6d41" data-name="Layer 1" xmlns="http://www.w3.org/2000/svg" width="865.76" height="682.89" viewBox="0 0 865.76 682.89">

<defs>

<style xmlns="http://www.w3.org/1999/xhtml">*, ::after, ::before { box-sizing: border-box; }
img, svg { vertical-align: middle; }
</style>

<style xmlns="http://www.w3.org/1999/xhtml">*, body, html { -webkit-font-smoothing: antialiased; }
img, svg { max-width: 100%; }
</style>

</defs>

<path d="M591.72,381.23V565.4a7.07,7.07,0,0,1-7.06,7.07H87.38a7.08,7.08,0,0,1-7.07-7.07V381.23Z" fill="#2f2e41" data-secondary="true"/>

<path d="M591.72,335.17v46.21H80.31V335.17c0-.13,0-.25,0-.37A7.16,7.16,0,0,1,87.1,328H584.93a7.16,7.16,0,0,1,6.78,6.78C591.72,334.92,591.72,335,591.72,335.17Z" fill="#2f2e41" data-secondary="true"/>

<path d="M591.72,335.17v46.21H80.31V335.17c0-.13,0-.25,0-.37A7.16,7.16,0,0,1,87.1,328H584.93a7.16,7.16,0,0,1,6.78,6.78C591.72,334.92,591.72,335,591.72,335.17Z" fill="#fff" opacity="0.2"/>

<circle cx="146.52" cy="354.22" r="15.9" fill="#2f2e41" data-secondary="true"/>

<circle cx="143.65" cy="354.11" r="15.9" fill="#fff"/>

<circle cx="484.63" cy="354.17" r="15.9" fill="#2f2e41" data-secondary="true"/>

<circle cx="481.76" cy="354.06" r="15.9" fill="#fff"/>

<circle cx="535.45" cy="354.11" r="15.9" fill="#2f2e41" data-secondary="true"/>

<circle cx="532.58" cy="354.01" r="15.9" fill="#fff"/>

<path d="M166.55,327.54H127.87a19.39,19.39,0,0,1,38.68,0Z" fill="#2f2e41" data-secondary="true"/>

<rect x="248.06" y="336.83" width="172.57" height="34.69" rx="12.32" fill="#2f2e41" data-secondary="true"/>

<path d="M251.74,363.13H371.33a68.62,68.62,0,0,0,25.11-4.63c8.63-3.41,17.93-9.19,22-18.84a10.41,10.41,0,0,1,2.18,5.68v19s-1.16,7.22-8.51,7.22l-157-.13a8.63,8.63,0,0,1-7.07-8.38Z" opacity="0.2"/>

<rect x="286.83" y="380.9" width="102.23" height="191.56" fill="#fff"/>

<rect x="370.07" y="380.9" width="18.99" height="191.24" fill="#ccc"/>

<rect x="286.83" y="509.53" width="102.23" height="0.69" fill="#3f3d56"/>

<rect x="286.83" y="517.43" width="102.23" height="0.69" fill="#3f3d56"/>

<rect x="286.83" y="525.32" width="102.23" height="0.69" fill="#3f3d56"/>

<rect x="286.83" y="533.2" width="102.23" height="0.69" fill="#3f3d56"/>

<rect x="286.83" y="541.78" width="102.23" height="0.69" fill="#3f3d56"/>

<rect x="286.83" y="549.68" width="102.23" height="0.69" fill="#3f3d56"/>

<rect x="286.83" y="557.57" width="102.23" height="0.69" fill="#3f3d56"/>

<rect x="286.83" y="565.46" width="102.23" height="0.69" fill="#3f3d56"/>

<rect x="286.83" y="436.31" width="102.23" height="66.62" fill="#3f3d56"/>

<rect x="146.52" y="22.38" width="1.38" height="287.16" fill="#2f2e41" data-secondary="true"/>

<circle cx="146.98" cy="17.64" r="5.82" fill="#2f2e41" data-secondary="true"/>

<circle cx="189.98" cy="480.99" r="73.01" opacity="0.2"/>

<circle cx="184.36" cy="480.99" r="73.01" fill="#3f3d56"/>

<circle cx="184.36" cy="480.99" r="73.01" fill="#fff" opacity="0.2"/>

<circle cx="184.36" cy="480.99" r="67.39" fill="#2f2e41" data-secondary="true"/>

<circle cx="185.3" cy="480.99" r="21.94" fill="#2f2e41" data-secondary="true"/>

<circle cx="183.41" cy="480.99" r="21.94" fill="#fff"/>

<circle cx="495" cy="480.99" r="73.01" opacity="0.2"/>

<circle cx="489.38" cy="480.99" r="73.01" fill="#3f3d56"/>

<circle cx="489.38" cy="480.99" r="73.01" fill="#fff" opacity="0.2"/>

<circle cx="489.38" cy="480.99" r="67.39" fill="#2f2e41" data-secondary="true"/>

<circle cx="490.32" cy="480.99" r="21.94" fill="#2f2e41" data-secondary="true"/>

<circle cx="488.43" cy="480.99" r="21.94" fill="#fff"/>

<circle cx="314.27" cy="469.96" r="13.27" fill="#2f2e41" data-secondary="true"/>

<circle cx="311.88" cy="469.88" r="13.27" fill="#3f3d56"/>

<rect x="295.5" y="406.42" width="82.06" height="5.92" rx="2.67" fill="#3f3d56"/>

<path d="M240.66,512.51s-18.49,1.84-31.95-5.71a51.8,51.8,0,0,1-27.52-31.36,1.7,1.7,0,0,0-2.32-1.53s-1.57.2-1.08,2.07c0,0-11.47,19.8,8.12,40.36a52.45,52.45,0,0,1,9.34,13.22l.13.26a49.28,49.28,0,0,1,3.47,10c1.15,4.91,5.08,14.64,17.9,10.29,0,0,19.32-12.21,27.54-14.17C244.29,536,240.64,528,240.66,512.51Z" fill="#ccc"/>

<path d="M305.61,608.63,349.4,480.92s8.87-23.66,39.64-12.43c0,0,54.85,30.17,122.11,86.69l44.05,41L389,535.24s-9.46,18.41-27.81,39.29c0,0-20.41,21.48-25.44,34.2l-4.44,8S313.89,615.14,305.61,608.63Z" fill="#2f2e41" data-secondary="true"/>

<path d="M305.61,608.63,349.4,480.92s8.87-23.66,39.64-12.43c0,0,54.85,30.17,122.11,86.69l44.05,41L389,535.24s-9.46,18.41-27.81,39.29c0,0-20.41,21.48-25.44,34.2l-4.44,8S313.89,615.14,305.61,608.63Z" opacity="0.4"/>

<path d="M239.92,510.24s-.59,16.07,4.74,26.51c0,0,47.3-7.18,73.26-4.78a50.52,50.52,0,0,1,5.47.84,80.56,80.56,0,0,0,47.11-5.64S453.74,639.9,468.34,645l96.26-8.68s-8.72-39-21.79-51.21c0,0-17.27-2.84-60.27-39.53,0,0-86.52-83.56-117.45-76.72a86,86,0,0,1-9.59,1.45c-10.3,1.11-31.68,4.81-58.61,17.14-3.75,1.71-7.55,3.3-11.39,4.81Z" fill="#2f2e41" data-secondary="true"/>

<path d="M239.92,510.24s-.59,16.07,4.74,26.51c0,0,47.3-7.18,73.26-4.78a50.52,50.52,0,0,1,5.47.84,80.56,80.56,0,0,0,47.11-5.64S453.74,639.9,468.34,645l96.26-8.68s-8.72-39-21.79-51.21c0,0-17.27-2.84-60.27-39.53,0,0-86.52-83.56-117.45-76.72a86,86,0,0,1-9.59,1.45c-10.3,1.11-31.68,4.81-58.61,17.14-3.75,1.71-7.55,3.3-11.39,4.81Z" opacity="0.2"/>

<polyline points="639.34 488.46 648.63 468.49 663.93 457.79 671.36 466.28 673.36 485.36 673.36 493.74 668.25 498.42" fill="#f9b499"/>

<path d="M467.79,666.49S684,678.93,746.28,662.8c0,0,35.5-.93,38.73-49.8,0,0,9.22-90.37-56.25-149.85,0,0-25.36-21.67-42.88,2.77,0,0-10.15,5.53-24,51.18,0,0-10.14,58.09-67.31,95.44,0,0-17.09,11.49-33.92,18.93a38.21,38.21,0,0,1-26.8,1.77,26.13,26.13,0,0,1-6-2.62,43.76,43.76,0,0,0-7.85-4c-12.33-4.55-41-11.39-54.57,16.77C465.49,643.43,449.94,665.56,467.79,666.49Z" fill="#ccc"/>

<g opacity="0.2">

<path d="M571.84,648.21a82.49,82.49,0,0,1-35.05-7.92c-27.74-13-45.57-11.39-55.65-7.76-10.9,3.93-15.32,11-15.36,11.08l-.59-.36c.05-.07,4.56-7.33,15.67-11.35,10.2-3.7,28.24-5.35,56.22,7.77,22.59,10.59,48,10.45,69.63-.36,28-14,49.57-41.5,64.21-81.82a233.61,233.61,0,0,0,11.07-44c3.06-19.8,11.29-53.86,32-59.56l.19.67c-20.38,5.59-28.5,39.36-31.53,59a235.1,235.1,0,0,1-11.11,44.11c-14.71,40.48-36.43,68.14-64.56,82.19A78.49,78.49,0,0,1,571.84,648.21Z" fill="#fff"/>

</g>

<g opacity="0.2">

<path d="M583.55,656.46a312.61,312.61,0,0,0-45.14-21.78l.25-.65a315.07,315.07,0,0,1,45.25,21.84Z" fill="#fff"/>

</g>

<g opacity="0.2">

<path d="M590,615.92l-.36-.59c.33-.2,33.94-20.63,73.42-19.08l0,.69C623.73,595.39,590.32,615.71,590,615.92Z" fill="#fff"/>

</g>

<g opacity="0.2">

<path d="M633.13,577.6l-.5-.48c.32-.34,33.08-33.87,77.22-50.28l.24.65C666.1,543.84,633.45,577.26,633.13,577.6Z" fill="#fff"/>

</g>

<path d="M511.15,555.18s-13-40.64,32.34-57.6c0,0-4.87-60.61,66.88-54.5a75.27,75.27,0,0,1,24.46,6.38l17.55,7.88s1.57,17-9.08,28l-87.58,93.89H536.39Z" fill="#2f2e41" data-secondary="true"/>

<ellipse cx="649.5" cy="433.46" rx="41.52" ry="26.77" transform="translate(78.63 966.23) rotate(-76.74)" fill="#f9b499"/>

<path d="M622.64,431.28s-9.14-11.43-4.26-28.71a26.16,26.16,0,0,1,17.93-18.26,24.57,24.57,0,0,1,14.58.45s27.52-10.95,35.8,10.06l16.87,24.26s16.55,10.48,8.57,35.86c0,0-15.37-5.1-26.25,11a81.14,81.14,0,0,0-14.4,23.94s-1.36-10.42-2.24-16.34c0,0-4.25-6.73-4.44-11.11,0,0-38.32-22-26.95-61.91C637.85,400.5,626.24,410.24,622.64,431.28Z" fill="#2f2e41" data-secondary="true"/>

<path d="M558.28,529.14l-32.54-37s10.35-13.91,7.69-18.64l-2-2.83a11.28,11.28,0,0,0-9.28-4.86h0l-15.66-25a2.51,2.51,0,0,0-3.25-.91h0a2.52,2.52,0,0,0-1.19,3.22l8.56,20.32s-13.91,11.24-12.13,18.93c0,0,5,12.73,12.13,16.57l39.65,75.57-13.91,4.71s19.18,12,25.72,51.58c0,0,13.75-6.82,18.83-9.84,0,0-9.05-3.07-4.9-13.43,0,0-13.91,1.18-9.47-17.16,0,0-8.58,3-10.06-5,0,0-.78-2.22,1.3-6.21a2.72,2.72,0,0,0-1.88-4l-.16,0s-6.33-1.32-3.8-5.58a4.88,4.88,0,0,0,.7-1.87Z" fill="#f9b499"/>

<path d="M611.14,499.26s31.93-17,38.36-13.41c0,0,15,.08,19.89,9.21l-7.49,22s-4.15,17.29-5.95,19.65c0,0-4.39.18-3.49-5.93,0,0-14,3.65-17.25-7.3,0,0-11.93,4.83-13.81-5.72,0,0-8.18,2.27-5.91-5.72l-18.74,10.65S598.72,515.16,611.14,499.26Z" fill="#e85b1a" data-primary="true"/>

<path d="M552.39,568.73s-3.42,4.19,2.57,6.19c0,0,5.46.25,2.17,5.72,0,0-3.21,7.41,4,10.06a11.74,11.74,0,0,0,5.44-.31s-2.66,9.46,1.19,13.68c0,0,.73,3,8.28,3.48,0,0-4.55,9.26,4.9,13.43,0,0,34.17-16.44,59.12-53.59,0,0,11-16.73,14.32-26.75,0,0-22.12,16.63-65.52,26.88C588.86,567.52,562.66,575.48,552.39,568.73Z" fill="#e85b1a" data-primary="true"/>

<path d="M307.34,609.84c-.31-.2-9.57,27.15-24.81,32.47,0,0-8,3.41-15.24,6.81,0,0-14.79,4.44-17.9,3.11,0,0-13.61-3.26-8.73,3.84,0,0,8,11.25,43.2,7.4,0,0,17.51-2.52,23.48-.59,0,0,18,4.89,22.54-3.4a7.86,7.86,0,0,0,.06-7.13c-2.19-4.6-6.72-17.73,1.41-35.63C331.35,616.72,314.78,614.8,307.34,609.84Z" fill="#ccc"/>

<path d="M648.73,473.74l.36-3.14s8.21-3.56,13.46-9.81l2.44,1.39S661.11,470.57,648.73,473.74Z" fill="#f9a88f"/>

<path d="M625.62,460.45a13.37,13.37,0,0,1-1.51-3.6s10.55-14,18.42-17.14l.92,1.6s-10.59,8.09-17.54,18.25Z" fill="#f9a88f"/>

<circle cx="668.25" cy="442.55" r="19.63" fill="#2f2e41" data-secondary="true"/>

<circle cx="668.25" cy="442.55" r="19.63" fill="#fff" opacity="0.2"/>

<circle cx="668.25" cy="442.55" r="15.24" opacity="0.2"/>

<path d="M668.25,422.92s15.08-24.82,20.89-31.29a2.29,2.29,0,0,1,2.77-.51c3.89,2,14.35,8.07,17.89,15.45a3.91,3.91,0,0,1-.14,3.61,109.33,109.33,0,0,1-22.44,27.34S683.49,423.91,668.25,422.92Z" fill="#2f2e41" data-secondary="true"/>

<path d="M668.25,422.92s15.08-24.82,20.89-31.29a2.29,2.29,0,0,1,2.77-.51c3.89,2,14.35,8.07,17.89,15.45a3.91,3.91,0,0,1-.14,3.61,109.33,109.33,0,0,1-22.44,27.34S683.49,423.91,668.25,422.92Z" fill="#fff" opacity="0.2"/>

<path d="M553.72,569.08c3.1,1.75-6.47-1.87-7.9-4.21a14.06,14.06,0,0,1-1.58-10.54c3.14-13.43,13.43-25.91,13.43-25.91l1.31,1.49-9.35,17.57a22.4,22.4,0,0,0-2.67,9.41A12.8,12.8,0,0,0,553.72,569.08Z" fill="#f9a88f"/>

<path d="M615.49,512.08l-18.74,10.65s2-10.25,34.91-49.11c0,0,19.44,2.26,32.75-13.17a.24.24,0,0,0,.06-.25c-.16-.59-1.11-2.53-6.49-.35a3.45,3.45,0,0,1-3.14-.23c-1.11-.73-1.91-2.12.11-4.69L675,445.17a1.92,1.92,0,0,0,.92-2.46h0a1.9,1.9,0,0,0-2.44-1l-19.26,7.54a1.17,1.17,0,0,1-1.55-.79h0a1.14,1.14,0,0,1,.49-1.27l21-13.71s-9.17-4-18.94-.77a86,86,0,0,0-30.38,26.24s-48,30.66-77.17,90.23c0,0-9.86,24.86,22.09,22.1,0,0,50.17-6.79,84.66-30.62l1.57-3.89s-4.59,0-3.49-5.93c0,0-14.09,3.55-17.25-7.3,0,0-11.64,4.93-13.81-5.72C621.4,517.8,613.32,520.37,615.49,512.08Z" fill="#f9b499"/>

</svg>